<?xml version="1.0" encoding="utf-8"?>
<!-- Generator: Adobe Illustrator 27.0.0, SVG Export Plug-In . SVG Version: 6.00 Build 0)  -->
<svg version="1.1" id="Lag_1" xmlns="http://www.w3.org/2000/svg" xmlns:xlink="http://www.w3.org/1999/xlink" x="0px" y="0px"
	 viewBox="0 0 408.1 91" style="enable-background:new 0 0 408.1 91;" xml:space="preserve">
<style type="text/css">
	.st0{fill:#FFFFFF;}
	.st1{fill:#E30613;}
</style>
<g>
	<path class="st0" d="M138.5,57.6l-6.8,16.9h-20.1l15.8-39.1c1.5-3.9,4.2-7.2,8.1-9.9c3.9-2.7,7.7-4.1,11.5-4.1h49.8
		c3.9,0,6.6,1.4,8.1,4.1c1.5,2.7,1.6,5.8,0.2,9.3l-16,39.7h-19.9l6.8-16.9H138.5z M155,46.3h25.6l4.7-11.6h-37.5l-4.7,11.6H155z"/>
	<path class="st0" d="M218.6,74.5H198l21.5-53.1h20.6L218.6,74.5z M241.8,43.9L270,21.5h26.2l-42.6,33.1l22.2,20h-31.4l-10.7-10.7
		L241.8,43.9z"/>
	<path class="st0" d="M284.1,74.5l21.4-53h20.8l-21.4,53H284.1z"/>
	<path class="st0" d="M387.1,34.7h-37.8l-16.1,39.8h-20l21.4-53h64.2c3.9,0,6.6,1.4,8.1,4.1c1.7,2.8,1.7,6.1,0.2,9.9l-15.8,39.1H371
		L387.1,34.7z"/>
</g>
<g>
	<path class="st0" d="M118.8,25.8c1.6,2.7,1.6,6,0.1,9.9l-15.8,39.1H83L99.1,35H80L63.9,74.8H43.8L59.9,35H40.8L24.7,74.8H4.6
		l21.4-53h84.6C114.5,21.8,117.2,23.1,118.8,25.8z"/>
</g>
<polygon class="st1" points="3.2,78.9 0.7,84.6 388.8,84.6 391.5,78.9 "/>
</svg>
